<svg width="24" height="24" viewBox="0 0 24 24" fill="none" xmlns="http://www.w3.org/2000/svg">
<path d="M12 0C5.37256 0 0 5.37256 0 12C0 18.6274 5.37256 24 12 24C18.6274 24 24 18.6274 24 12C24 5.37256 18.6274 0 12 0ZM12 2.32258C17.3483 2.32258 21.6774 6.65085 21.6774 12C21.6774 13.6684 21.2562 15.2375 20.5142 16.6071C19.8657 15.33 18.6985 14.3067 17.2537 13.8697C17.9124 12.8617 18.2661 11.6839 18.2661 10.4516C18.2661 6.9886 15.4636 4.18548 12 4.18548C8.53698 4.18548 5.73387 6.98802 5.73387 10.4516C5.73387 11.6839 6.08758 12.8617 6.74632 13.8697C5.30337 14.3061 4.13526 15.3282 3.48576 16.6071C2.74384 15.2376 2.32258 13.6685 2.32258 12C2.32258 6.65173 6.65085 2.32258 12 2.32258ZM8.12903 10.4516C8.12903 8.31373 9.86211 6.58065 12 6.58065C14.1379 6.58065 15.871 8.31373 15.871 10.4516C15.871 12.5895 14.1379 14.3226 12 14.3226C9.86211 14.3226 8.12903 12.5895 8.12903 10.4516ZM5.22934 18.9166C5.30284 17.2715 6.65937 15.9603 8.32258 15.9603H9.00827C10.8633 16.971 13.1375 16.9707 14.9918 15.9603H15.6774C17.3406 15.9603 18.6972 17.2715 18.7707 18.9166C15.0088 22.5995 8.98892 22.5972 5.22934 18.9166Z" fill="#525252"/>
</svg>
